<svg xmlns="http://www.w3.org/2000/svg" xmlns:xlink="http://www.w3.org/1999/xlink" width="500" zoomAndPan="magnify" viewBox="0 0 375 374.999991" height="500" preserveAspectRatio="xMidYMid meet" version="1.0"><defs><g/></defs><g fill="#ffffff" fill-opacity="1"><g transform="translate(47.893063, 217.873682)"><g><path d="M 28.640625 -58.59375 L 29.625 -58.59375 C 36.601562 -58.59375 43.113281 -56 49.15625 -50.8125 L 49.15625 -58.265625 C 49.1875 -58.484375 49.300781 -58.59375 49.5 -58.59375 L 58.265625 -58.59375 C 58.484375 -58.570312 58.59375 -58.460938 58.59375 -58.265625 L 58.59375 -0.328125 C 58.59375 -0.109375 58.484375 0 58.265625 0 L 49.5 0 C 49.269531 0 49.15625 -0.109375 49.15625 -0.328125 L 49.15625 -7.78125 C 43.175781 -2.59375 36.890625 0 30.296875 0 L 27.8125 0 C 20.613281 0 13.71875 -3.3125 7.125 -9.9375 C 2.375 -15.914062 0 -22.203125 0 -28.796875 L 0 -29.625 C 0 -38.945312 4.082031 -46.785156 12.25 -53.140625 C 17.488281 -56.773438 22.953125 -58.59375 28.640625 -58.59375 Z M 9.4375 -29.796875 L 9.4375 -28.796875 C 9.4375 -21.847656 12.800781 -16.222656 19.53125 -11.921875 C 22.59375 -10.265625 25.519531 -9.4375 28.3125 -9.4375 L 29.953125 -9.4375 C 35.941406 -9.4375 41.078125 -12.195312 45.359375 -17.71875 C 47.785156 -21.25 49 -24.890625 49 -28.640625 L 49 -29.953125 C 49 -37.296875 45.132812 -43.144531 37.40625 -47.5 C 34.507812 -48.601562 31.863281 -49.15625 29.46875 -49.15625 L 28.96875 -49.15625 C 23.914062 -49.15625 19.390625 -47.28125 15.390625 -43.53125 C 11.421875 -39.394531 9.4375 -34.816406 9.4375 -29.796875 Z M 9.4375 -29.796875 "/></g></g></g><g fill="#ffffff" fill-opacity="1"><g transform="translate(113.3447, 217.873682)"><g><path d="M 34.921875 -10.390625 L 34.921875 -0.125 C 34.535156 -0.09375 34.148438 -0.078125 33.765625 -0.078125 L 33.109375 -0.078125 C 14.921875 0.960938 3.941406 -6.320312 0.171875 -21.9375 C 0.171875 -25.4375 0.113281 -27.640625 0 -28.546875 C 0.113281 -31.804688 0.171875 -35.394531 0.171875 -39.3125 L 0.171875 -58.34375 C 0.171875 -58.5625 0.28125 -58.671875 0.5 -58.671875 L 9.265625 -58.671875 C 9.484375 -58.671875 9.59375 -58.5625 9.59375 -58.34375 L 9.59375 -33.1875 L 10.265625 -23.59375 C 12.085938 -14.488281 18.429688 -9.796875 29.296875 -9.515625 C 31.148438 -9.515625 33.023438 -9.804688 34.921875 -10.390625 Z M 34.921875 -10.390625 "/></g></g></g><g fill="#ffffff" fill-opacity="1"><g transform="translate(149.882587, 217.873682)"><g><path d="M 49.5 -74.984375 L 58.265625 -74.984375 C 58.484375 -74.953125 58.59375 -74.84375 58.59375 -74.65625 L 58.59375 -0.328125 C 58.59375 -0.109375 58.484375 0 58.265625 0 L 49.5 0 C 49.269531 0 49.15625 -0.109375 49.15625 -0.328125 L 49.15625 -7.78125 C 43.175781 -2.59375 36.890625 0 30.296875 0 L 27.8125 0 C 20.613281 0 13.71875 -3.3125 7.125 -9.9375 C 2.375 -15.914062 0 -22.203125 0 -28.796875 L 0 -29.625 C 0 -38.945312 4.082031 -46.785156 12.25 -53.140625 C 17.488281 -56.773438 22.953125 -58.59375 28.640625 -58.59375 L 29.625 -58.59375 C 36.601562 -58.59375 43.113281 -56 49.15625 -50.8125 L 49.15625 -74.65625 C 49.1875 -74.875 49.300781 -74.984375 49.5 -74.984375 Z M 9.4375 -29.796875 L 9.4375 -28.796875 C 9.4375 -21.847656 12.800781 -16.222656 19.53125 -11.921875 C 22.59375 -10.265625 25.519531 -9.4375 28.3125 -9.4375 L 29.953125 -9.4375 C 35.941406 -9.4375 41.078125 -12.195312 45.359375 -17.71875 C 47.785156 -21.25 49 -24.890625 49 -28.640625 L 49 -29.953125 C 49 -37.296875 45.132812 -43.144531 37.40625 -47.5 C 34.507812 -48.601562 31.863281 -49.15625 29.46875 -49.15625 L 28.96875 -49.15625 C 23.914062 -49.15625 19.390625 -47.28125 15.390625 -43.53125 C 11.421875 -39.394531 9.4375 -34.816406 9.4375 -29.796875 Z M 9.4375 -29.796875 "/></g></g></g><g fill="#ffffff" fill-opacity="1"><g transform="translate(216.939645, 217.873682)"><g><path d="M 34.921875 -48.328125 C 33.023438 -48.878906 31.148438 -49.15625 29.296875 -49.15625 C 18.429688 -48.882812 12.085938 -44.195312 10.265625 -35.09375 L 9.59375 -25.484375 L 9.59375 -0.328125 C 9.59375 -0.109375 9.484375 0 9.265625 0 L 0.5 0 C 0.28125 0 0.171875 -0.109375 0.171875 -0.328125 L 0.171875 -19.359375 C 0.171875 -23.285156 0.113281 -26.875 0 -30.125 C 0.113281 -31.03125 0.171875 -33.238281 0.171875 -36.75 C 3.941406 -52.363281 14.921875 -59.644531 33.109375 -58.59375 L 33.765625 -58.59375 C 34.148438 -58.59375 34.535156 -58.582031 34.921875 -58.5625 Z M 34.921875 -48.328125 "/></g></g></g><g fill="#ffffff" fill-opacity="1"><g transform="translate(252.49736, 217.873682)"><g><path d="M 28.640625 -58.59375 L 29.625 -58.59375 C 36.601562 -58.59375 43.113281 -56 49.15625 -50.8125 L 49.15625 -58.265625 C 49.1875 -58.484375 49.300781 -58.59375 49.5 -58.59375 L 58.265625 -58.59375 C 58.484375 -58.570312 58.59375 -58.460938 58.59375 -58.265625 L 58.59375 -0.328125 C 58.59375 -0.109375 58.484375 0 58.265625 0 L 49.5 0 C 49.269531 0 49.15625 -0.109375 49.15625 -0.328125 L 49.15625 -7.78125 C 43.175781 -2.59375 36.890625 0 30.296875 0 L 27.8125 0 C 20.613281 0 13.71875 -3.3125 7.125 -9.9375 C 2.375 -15.914062 0 -22.203125 0 -28.796875 L 0 -29.625 C 0 -38.945312 4.082031 -46.785156 12.25 -53.140625 C 17.488281 -56.773438 22.953125 -58.59375 28.640625 -58.59375 Z M 9.4375 -29.796875 L 9.4375 -28.796875 C 9.4375 -21.847656 12.800781 -16.222656 19.53125 -11.921875 C 22.59375 -10.265625 25.519531 -9.4375 28.3125 -9.4375 L 29.953125 -9.4375 C 35.941406 -9.4375 41.078125 -12.195312 45.359375 -17.71875 C 47.785156 -21.25 49 -24.890625 49 -28.640625 L 49 -29.953125 C 49 -37.296875 45.132812 -43.144531 37.40625 -47.5 C 34.507812 -48.601562 31.863281 -49.15625 29.46875 -49.15625 L 28.96875 -49.15625 C 23.914062 -49.15625 19.390625 -47.28125 15.390625 -43.53125 C 11.421875 -39.394531 9.4375 -34.816406 9.4375 -29.796875 Z M 9.4375 -29.796875 "/></g></g></g></svg>